<?xml version="1.0" encoding="utf-8"?>
<!-- Generator: Adobe Illustrator 27.2.0, SVG Export Plug-In . SVG Version: 6.00 Build 0)  -->
<svg version="1.1" xmlns="http://www.w3.org/2000/svg" xmlns:xlink="http://www.w3.org/1999/xlink" x="0px" y="0px" width="841.9px"
	 height="595.3px" viewBox="0 0 841.9 595.3" style="enable-background:new 0 0 841.9 595.3;" xml:space="preserve">
<style type="text/css">
	.st0{display:none;}
	.st1{display:inline;}
	.st2{font-family:'TTNorms-Medium';}
	.st3{font-size:23.0294px;}
</style>
<g id="TM" class="st0">
	<path class="st1" d="M624.7,246.6H639v3.6h-5.2v14.6h-3.9v-14.6h-5.2V246.6z M660.9,246.6v18.2h-3.9v-10.9l-5.5,6.7l-5.5-6.7v10.9
		H642v-18.2h3.3l6.1,7.9l6-7.9H660.9z"/>
</g>
<g id="TAGLINE">
</g>
<g id="WRM">
</g>
<g id="DROPLET">
	<g>
		<g>
			<path d="M357.4,388.1l3.9-12.3h2.6l-5.3,16.1h-2.5l-3.9-12.2l-3.9,12.2h-2.5l-5.3-16.1h2.7l3.9,12.3l3.9-12.3h2.5L357.4,388.1z"
				/>
			<path d="M371.1,375.7h2.5l6.7,16.1h-2.6l-1.7-4.3h-7.1l-1.7,4.3h-2.6L371.1,375.7z M369.7,385.3h5.3l-2.6-6.7L369.7,385.3z"/>
			<path d="M392.8,375.7v2.3h-4.8v13.8h-2.5V378h-4.8v-2.3H392.8z"/>
			<path d="M408.4,389.6v2.3h-11.6v-16.1h11.4v2.3h-8.9v4.3h7v2.3h-7v4.9H408.4z"/>
			<path d="M413.1,375.7h6.8c1.5,0,2.7,0.5,3.7,1.4c1,1,1.5,2.1,1.5,3.5c0,0.7-0.1,1.3-0.3,1.8c-0.2,0.6-0.5,1-0.8,1.4
				c-0.3,0.3-0.6,0.6-0.9,0.9c-0.3,0.2-0.6,0.4-0.8,0.5l-0.3,0.1l3.7,6.4h-2.8l-3.5-6.2h-3.7v6.2h-2.5V375.7z M421.8,378.8
				c-0.5-0.5-1.1-0.8-1.9-0.8h-4.3v5.3h4.3c0.8,0,1.4-0.3,1.9-0.8s0.8-1.1,0.8-1.9C422.6,379.9,422.3,379.3,421.8,378.8z"/>
			<path d="M440.5,390.3v-4.1h-4.1V384h4.1v-4.1h2v4.1h4.1v2.1h-4.1v4.1H440.5z"/>
		</g>
		<g>
			<path d="M353.7,416v2.3H342v-16.1h11.4v2.3h-8.9v4.3h7v2.3h-7v4.9H353.7z"/>
			<path d="M372.1,402.2v16.1h-2.2l-9-11.6v11.6h-2.5v-16.1h2.2l9,11.6v-11.6H372.1z"/>
			<path d="M375.9,402.2h2.7l4.9,12.9l5-12.9h2.6l-6.3,16.1h-2.5L375.9,402.2z"/>
			<path d="M394.9,402.2h2.5v16.1h-2.5V402.2z"/>
			<path d="M402.4,402.2h6.8c1.5,0,2.7,0.5,3.7,1.4c1,1,1.5,2.1,1.5,3.5c0,0.7-0.1,1.3-0.3,1.8c-0.2,0.6-0.5,1-0.8,1.4
				c-0.3,0.3-0.6,0.6-0.9,0.9c-0.3,0.2-0.6,0.4-0.8,0.5l-0.3,0.1l3.7,6.4H412l-3.5-6.2h-3.7v6.2h-2.5V402.2z M411,405.3
				c-0.5-0.5-1.1-0.8-1.9-0.8h-4.3v5.3h4.3c0.8,0,1.4-0.3,1.9-0.8s0.8-1.1,0.8-1.9C411.8,406.4,411.5,405.8,411,405.3z"/>
			<path d="M420.3,404.4c1.6-1.6,3.7-2.4,6.1-2.4s4.4,0.8,6.1,2.4c1.6,1.6,2.5,3.6,2.5,5.9c0,2.3-0.8,4.3-2.5,5.9
				c-1.6,1.6-3.7,2.4-6.1,2.4s-4.4-0.8-6.1-2.4c-1.6-1.6-2.5-3.6-2.5-5.9C417.9,407.9,418.7,406,420.3,404.4z M422.2,414.5
				c1.2,1.2,2.6,1.7,4.3,1.7s3.1-0.6,4.3-1.7s1.7-2.6,1.7-4.3s-0.6-3.1-1.7-4.2s-2.6-1.7-4.3-1.7s-3.1,0.6-4.3,1.7s-1.7,2.6-1.7,4.2
				S421,413.3,422.2,414.5z"/>
			<path d="M452.9,402.2v16.1h-2.2l-9-11.6v11.6h-2.5v-16.1h2.2l9,11.6v-11.6H452.9z"/>
			<path d="M472.5,402.2h2.2v16.1h-2.5v-11.7l-5.9,7.4l-5.9-7.4v11.7h-2.5v-16.1h2.2l6.2,7.8L472.5,402.2z"/>
			<path d="M491.3,416v2.3h-11.6v-16.1H491v2.3h-8.9v4.3h7v2.3h-7v4.9H491.3z"/>
			<path d="M509.7,402.2v16.1h-2.2l-9-11.6v11.6H496v-16.1h2.2l9,11.6v-11.6H509.7z"/>
			<path d="M525.9,402.2v2.3h-4.8v13.8h-2.5v-13.8h-4.8v-2.3H525.9z"/>
		</g>
		<text transform="matrix(1 0 0 1 455.7546 353.2053)" class="st2 st3"> </text>
		<polygon points="386.4,246.6 404.3,306 422.3,246.6 442.1,246.6 413.6,333.2 396.3,333.2 377.8,275.1 359.2,333.2 341.9,333.2 
			313.5,246.6 333.3,246.6 351.2,306 369.1,246.6 		"/>
		<g>
			<path d="M501.4,266.7c-2.2-2.2-5-3.3-8.4-3.3h-19.1v22.9H493c3.4,0,6.2-1.1,8.4-3.2c2.2-2.2,3.4-4.8,3.4-7.9
				C504.8,271.7,503.6,268.9,501.4,266.7 M455.2,246.6h38.3c8.6,0,15.7,2.7,21.3,8.2c5.6,5.5,8.4,12.2,8.4,20.2
				c0,3.5-0.5,6.7-1.6,9.7c-1.1,3-2.4,5.5-3.8,7.3c-1.5,1.9-3,3.4-4.5,4.8c-1.5,1.3-2.8,2.2-3.9,2.7l-1.6,0.8l18.5,32.8h-19.8
				l-16.7-30.3h-16.1v30.3h-18.6V246.6z"/>
		</g>
		<polygon points="617.3,246.6 587.3,284.3 557.7,246.6 540.9,246.6 540.9,333.2 559.5,333.2 559.5,275.7 587.3,310.9 615.2,275.5 
			615.2,333.2 633.7,333.2 633.7,246.6 		"/>
		<g>
			<defs>
				<path id="SVGID_1_" d="M247.6,270.4l-0.5-0.1c-0.2,0-0.6-0.1-1-0.3c-0.8-0.2-1.7-0.5-2.7-0.9c-4.9-1.9-9.2-5.4-12.1-9.8
					c-0.6-0.9-1.2-1.9-1.7-3c-0.5-1.1-1-2.3-1.4-3.5c-0.4-1.3-0.7-2.7-0.9-4.1c-0.1-1.2-0.2-2.2-0.2-3.3c0-4.1,1-8.8,3.1-13.9
					c0.7-1.8,1.6-3.8,2.8-6.1c1.1-2.1,2.3-4.3,3.8-6.6c3.4-5.4,7.6-11.2,12.4-16.6c1.2-1.4,2.3-2.7,3.4-3.8c1.3,1.4,2.6,2.9,4.1,4.6
					l0,0c4.8,5.6,11.4,14.2,16,23.5l0.6,1.3c1.3,2.8,2.4,5.5,3.1,8c1.1,3.5,1.6,6.8,1.6,9.7c0,0.6,0,1.2-0.1,1.7l0,0.7
					c-0.1,1.3-0.3,2.5-0.7,3.8c-0.6,2.4-1.5,4.6-2.7,6.7c-0.4,0.6-0.7,1.2-1.1,1.8l-0.3,0.4c-1.7,2.3-3.6,4.2-5.9,5.8l-0.2,0.2
					c-2.9,2-6.2,3.4-9.7,4.1c-1.6,0.3-3.2,0.5-4.8,0.5C250.9,270.9,249.3,270.8,247.6,270.4 M252.7,171.8l-6.5,6
					c-0.1,0-5.1,4.7-11.4,12c-5.4,6.3-10.2,12.7-14.1,19c-1.7,2.8-3.2,5.4-4.6,8c-1.5,2.8-2.6,5.4-3.6,7.8
					c-2.9,7.4-4.4,14.4-4.4,20.9c0,1.9,0.1,3.7,0.4,5.7c0.3,2.4,0.8,4.9,1.5,7.2c0.7,2.1,1.5,4.2,2.4,6.1c0.9,1.9,1.9,3.6,3,5.3
					c5.1,7.8,12.4,13.7,21.1,17.1c1.7,0.6,3.2,1.2,4.9,1.6c0.7,0.2,1.3,0.3,1.9,0.4l0.6,0.1c2.8,0.6,5.7,0.9,8.6,0.9l0.3,0
					c2.8,0,5.6-0.3,8.3-0.8c6.1-1.2,11.9-3.6,17-7.2l0.3-0.2c4-2.8,7.4-6.2,10.2-10.1l0.5-0.6c0.7-1,1.3-2,2-3.2
					c2.1-3.6,3.7-7.5,4.7-11.6c0.6-2.2,0.9-4.4,1.1-6.6c0-0.2,0-0.5,0.1-0.8l0-0.2c0.1-1.1,0.1-2.1,0.1-3.2c0-4.8-0.8-9.9-2.4-15.2
					c-1-3.4-2.4-7-4.2-10.7c-0.2-0.4-0.4-0.7-0.5-1l-0.2-0.5c-4.4-8.9-10.7-18.1-18.6-27.4c-5.3-6.2-9.7-10.6-11.5-12.3L252.7,171.8
					z"/>
			</defs>
			
				<linearGradient id="SVGID_00000116206619863481482400000016097495228894687378_" gradientUnits="userSpaceOnUse" x1="252.6881" y1="171.7586" x2="252.6881" y2="289.9766">
				<stop  offset="0" style="stop-color:#005BAA"/>
				<stop  offset="0.5" style="stop-color:#00928F"/>
				<stop  offset="1" style="stop-color:#8DC63F"/>
			</linearGradient>
			<use xlink:href="#SVGID_1_"  style="overflow:visible;fill:url(#SVGID_00000116206619863481482400000016097495228894687378_);"/>
			<clipPath id="SVGID_00000130645368002657032490000013469551530082884030_">
				<use xlink:href="#SVGID_1_"  style="overflow:visible;"/>
			</clipPath>
		</g>
	</g>
</g>
</svg>
