<?xml version="1.0" encoding="utf-8"?>
<!-- Generator: Adobe Illustrator 27.2.0, SVG Export Plug-In . SVG Version: 6.00 Build 0)  -->
<svg version="1.1" xmlns="http://www.w3.org/2000/svg" xmlns:xlink="http://www.w3.org/1999/xlink" x="0px" y="0px" width="841.9px"
	 height="595.3px" viewBox="0 0 841.9 595.3" style="enable-background:new 0 0 841.9 595.3;" xml:space="preserve">
<style type="text/css">
	.st0{font-family:'TTNorms-Medium';}
	.st1{font-size:23.0294px;}
</style>
<g id="WRM">
</g>
<g id="DROPLET">
	<g>
		<text transform="matrix(1 0 0 1 455.7546 385.7636)" class="st0 st1"> </text>
		<polygon points="386.4,279.2 404.3,338.5 422.3,279.2 442.1,279.2 413.6,365.8 396.3,365.8 377.8,307.6 359.2,365.8 341.9,365.8 
			313.5,279.2 333.3,279.2 351.2,338.5 369.1,279.2 		"/>
		<g>
			<path d="M501.4,299.2c-2.2-2.2-5-3.3-8.4-3.3h-19.1v22.9H493c3.4,0,6.2-1.1,8.4-3.2c2.2-2.2,3.4-4.8,3.4-7.9
				C504.8,304.2,503.6,301.4,501.4,299.2 M455.2,279.2h38.3c8.6,0,15.7,2.7,21.3,8.2c5.6,5.5,8.4,12.2,8.4,20.2
				c0,3.5-0.5,6.7-1.6,9.7c-1.1,3-2.4,5.5-3.8,7.3c-1.5,1.9-3,3.4-4.5,4.8c-1.5,1.3-2.8,2.2-3.9,2.7l-1.6,0.8l18.5,32.8h-19.8
				l-16.7-30.3h-16.1v30.3h-18.6V279.2z"/>
		</g>
		<polygon points="617.3,279.2 587.3,316.9 557.7,279.2 540.9,279.2 540.9,365.8 559.5,365.8 559.5,308.3 587.3,343.5 615.2,308 
			615.2,365.8 633.7,365.8 633.7,279.2 		"/>
		<g>
			<defs>
				<path id="SVGID_1_" d="M247.6,303l-0.5-0.1c-0.2,0-0.6-0.1-1-0.3c-0.8-0.2-1.7-0.5-2.7-0.9c-4.9-1.9-9.2-5.4-12.1-9.8
					c-0.6-0.9-1.2-1.9-1.7-3c-0.5-1.1-1-2.3-1.4-3.5c-0.4-1.3-0.7-2.7-0.9-4.1c-0.1-1.2-0.2-2.2-0.2-3.3c0-4.1,1-8.8,3.1-13.9
					c0.7-1.8,1.6-3.8,2.8-6.1c1.1-2.1,2.3-4.3,3.8-6.6c3.4-5.4,7.6-11.2,12.4-16.6c1.2-1.4,2.3-2.7,3.4-3.8c1.3,1.4,2.6,2.9,4.1,4.6
					l0,0c4.8,5.6,11.4,14.2,16,23.5l0.6,1.3c1.3,2.8,2.4,5.5,3.1,8c1.1,3.5,1.6,6.8,1.6,9.7c0,0.6,0,1.2-0.1,1.7l0,0.7
					c-0.1,1.3-0.3,2.5-0.7,3.8c-0.6,2.4-1.5,4.6-2.7,6.7c-0.4,0.6-0.7,1.2-1.1,1.8l-0.3,0.4c-1.7,2.3-3.6,4.2-5.9,5.8l-0.2,0.2
					c-2.9,2-6.2,3.4-9.7,4.1c-1.6,0.3-3.2,0.5-4.8,0.5C250.9,303.5,249.3,303.3,247.6,303 M252.7,204.3l-6.5,6
					c-0.1,0-5.1,4.7-11.4,12c-5.4,6.3-10.2,12.7-14.1,19c-1.7,2.8-3.2,5.4-4.6,8c-1.5,2.8-2.6,5.4-3.6,7.8
					c-2.9,7.4-4.4,14.4-4.4,20.9c0,1.9,0.1,3.7,0.4,5.7c0.3,2.4,0.8,4.9,1.5,7.2c0.7,2.1,1.5,4.2,2.4,6.1c0.9,1.9,1.9,3.6,3,5.3
					c5.1,7.8,12.4,13.7,21.1,17.1c1.7,0.6,3.2,1.2,4.9,1.6c0.7,0.2,1.3,0.3,1.9,0.4l0.6,0.1c2.8,0.6,5.7,0.9,8.6,0.9l0.3,0
					c2.8,0,5.6-0.3,8.3-0.8c6.1-1.2,11.9-3.6,17-7.2l0.3-0.2c4-2.8,7.4-6.2,10.2-10.1l0.5-0.6c0.7-1,1.3-2,2-3.2
					c2.1-3.6,3.7-7.5,4.7-11.6c0.6-2.2,0.9-4.4,1.1-6.6c0-0.2,0-0.5,0.1-0.8l0-0.2c0.1-1.1,0.1-2.1,0.1-3.2c0-4.8-0.8-9.9-2.4-15.2
					c-1-3.4-2.4-7-4.2-10.7c-0.2-0.4-0.4-0.7-0.5-1l-0.2-0.5c-4.4-8.9-10.7-18.1-18.6-27.4c-5.3-6.2-9.7-10.6-11.5-12.3L252.7,204.3
					z"/>
			</defs>
			
				<linearGradient id="SVGID_00000005971862144572527040000002346039226665907090_" gradientUnits="userSpaceOnUse" x1="252.6881" y1="204.3169" x2="252.6881" y2="322.5349">
				<stop  offset="0" style="stop-color:#005BAA"/>
				<stop  offset="0.5" style="stop-color:#00928F"/>
				<stop  offset="1" style="stop-color:#8DC63F"/>
			</linearGradient>
			<use xlink:href="#SVGID_1_"  style="overflow:visible;fill:url(#SVGID_00000005971862144572527040000002346039226665907090_);"/>
			<clipPath id="SVGID_00000125601719445992782280000006135957123253662889_">
				<use xlink:href="#SVGID_1_"  style="overflow:visible;"/>
			</clipPath>
		</g>
	</g>
</g>
</svg>
