<?xml version="1.0" encoding="utf-8"?>
<!-- Generator: Adobe Illustrator 27.2.0, SVG Export Plug-In . SVG Version: 6.00 Build 0)  -->
<svg version="1.1" xmlns="http://www.w3.org/2000/svg" xmlns:xlink="http://www.w3.org/1999/xlink" x="0px" y="0px" width="841.9px"
	 height="595.3px" viewBox="0 0 841.9 595.3" style="enable-background:new 0 0 841.9 595.3;" xml:space="preserve">
<g id="WRM">
</g>
<g id="DROPLET">
	<g>
		<defs>
			<path id="SVGID_1_" d="M408.9,391.7l-1.1-0.2c-0.5-0.1-1.5-0.3-2.5-0.6c-1.9-0.5-4.1-1.2-6.4-2.1c-11.6-4.5-21.8-12.9-28.7-23.4
				c-1.5-2.2-2.8-4.6-4-7.1c-1.3-2.7-2.4-5.5-3.3-8.4c-0.9-3.1-1.6-6.4-2-9.8c-0.4-2.8-0.5-5.3-0.5-7.7c0-9.8,2.4-20.9,7.3-33.1
				c1.7-4.3,3.9-9.1,6.7-14.5c2.6-5.1,5.5-10.2,9-15.8c8-12.9,18.2-26.5,29.4-39.6c2.9-3.3,5.6-6.4,8.1-9.1c3,3.3,6.3,6.9,9.7,11
				l0,0c11.3,13.3,27.1,33.8,38.1,55.9l1.5,3c3.1,6.6,5.6,13,7.4,19c2.5,8.3,3.8,16.1,3.8,23.1c0,1.4-0.1,2.7-0.2,4.1l-0.1,1.6
				c-0.3,3-0.8,5.9-1.6,8.9c-1.4,5.6-3.6,10.9-6.4,15.9c-0.9,1.5-1.7,2.9-2.6,4.2l-0.7,0.9c-3.9,5.4-8.6,10-14,13.8l-0.5,0.4
				c-7,4.9-14.8,8.1-23.1,9.7c-3.8,0.7-7.6,1.1-11.4,1.1C416.7,392.8,412.8,392.4,408.9,391.7 M421,157.1l-15.4,14.2
				c-0.1,0.1-12.1,11.2-27,28.5c-12.9,15-24.2,30.2-33.5,45.2c-4.1,6.6-7.7,12.8-10.8,19c-3.5,6.8-6.3,12.8-8.6,18.6
				c-6.9,17.5-10.4,34.3-10.4,49.8c0,4.4,0.3,8.8,0.9,13.5c0.7,5.8,2,11.6,3.6,17.2c1.6,5.1,3.5,9.9,5.6,14.5
				c2.1,4.4,4.5,8.6,7,12.5c12.1,18.5,29.4,32.6,50.1,40.7c4,1.5,7.7,2.8,11.5,3.8c1.7,0.4,3,0.7,4.4,1l1.5,0.3
				c6.7,1.4,13.5,2.1,20.3,2.1l0.6,0c6.6,0,13.3-0.6,19.8-1.9c14.6-2.8,28.2-8.5,40.5-17l0.8-0.6c9.4-6.7,17.5-14.7,24.3-24l1.1-1.5
				c1.6-2.3,3.1-4.7,4.8-7.5c5-8.6,8.8-17.9,11.3-27.7c1.3-5.2,2.2-10.5,2.7-15.6c0-0.5,0.1-1.2,0.2-1.9l0-0.6
				c0.2-2.7,0.3-5.1,0.3-7.5c0-11.4-1.9-23.6-5.7-36.1c-2.4-8.2-5.8-16.7-9.9-25.5c-0.5-0.9-0.8-1.7-1.2-2.5l-0.6-1.1
				c-10.5-21.1-25.3-43-44.2-65.2c-12.5-14.7-23.1-25.2-27.2-29.1L421,157.1z"/>
		</defs>
		
			<linearGradient id="SVGID_00000011720052700374144680000014300567057346926244_" gradientUnits="userSpaceOnUse" x1="420.9449" y1="157.1418" x2="420.9449" y2="438.1338">
			<stop  offset="0" style="stop-color:#005BAA"/>
			<stop  offset="0.5" style="stop-color:#00928F"/>
			<stop  offset="1" style="stop-color:#8DC63F"/>
		</linearGradient>
		<use xlink:href="#SVGID_1_"  style="overflow:visible;fill:url(#SVGID_00000011720052700374144680000014300567057346926244_);"/>
		<clipPath id="SVGID_00000078021511482856085440000014778293268810377116_">
			<use xlink:href="#SVGID_1_"  style="overflow:visible;"/>
		</clipPath>
	</g>
</g>
</svg>
